<?xml version="1.0" encoding="UTF-8"?>
<svg version="1.1" xmlns="http://www.w3.org/2000/svg" width="500" height="500">
<path d="M0 0 C165 0 330 0 500 0 C500 165 500 330 500 500 C335 500 170 500 0 500 C0 335 0 170 0 0 Z M242.87939453 12.03808594 C183.35086519 13.30382598 127.74768116 36.86945986 85 78 C84.42217773 78.55059082 83.84435547 79.10118164 83.24902344 79.66845703 C75.2022128 87.36588403 67.93469736 95.35730137 61.27783203 104.28808594 C60.38060738 105.49009955 59.47452428 106.68552723 58.56201172 107.87597656 C48.84013906 120.61802281 40.65020533 134.4292474 34 149 C33.51370117 150.04945801 33.51370117 150.04945801 33.01757812 151.12011719 C20.30274463 178.84241985 12.45509732 209.41095858 12 240 C11.98098633 240.69432129 11.96197266 241.38864258 11.94238281 242.10400391 C10.89562489 281.25446613 18.39525211 319.89022611 36 355 C36.36593262 355.74137207 36.73186523 356.48274414 37.10888672 357.24658203 C45.00120862 373.13227543 54.8007896 387.2846499 66 401 C66.650896 401.80751709 66.650896 401.80751709 67.31494141 402.63134766 C77.86629335 415.69058016 89.61237908 427.83126061 103 438 C103.55623047 438.42732422 104.11246094 438.85464844 104.68554688 439.29492188 C139.86949047 466.22725655 180.11853825 481.75500848 224 487 C225.03640625 487.13277344 226.0728125 487.26554687 227.140625 487.40234375 C270.91585043 492.07426108 315.64675694 483.10091276 355 464 C355.79116211 463.62004883 356.58232422 463.24009766 357.39746094 462.84863281 C375.62743296 453.99964105 391.86941213 442.42479685 407 429 C407.68449219 428.42507813 408.36898438 427.85015625 409.07421875 427.2578125 C424.31371601 414.4144626 436.69686338 399.32107941 448 383 C448.72574219 381.95328125 449.45148438 380.9065625 450.19921875 379.828125 C454.56123521 373.41388365 458.48734093 366.91501726 462 360 C462.32581055 359.37367676 462.65162109 358.74735352 462.98730469 358.10205078 C491.39807371 303.08705295 495.43481256 236.14403636 477.1875 177.3125 C465.62330495 141.70271583 446.90375909 110.95325184 421 84 C420.48179687 83.45456543 419.96359375 82.90913086 419.4296875 82.34716797 C412.05246543 74.60880725 404.332997 67.72341098 395.76513672 61.32958984 C394.04262464 60.03210703 392.35036371 58.70245706 390.66015625 57.36328125 C373.99554156 44.3831496 354.78040464 34.31496836 335 27 C334.26797363 26.72752441 333.53594727 26.45504883 332.78173828 26.17431641 C303.79274769 15.56141948 273.64678567 11.48550558 242.87939453 12.03808594 Z " fill="#000000" transform="translate(0,0)"/>
<path d="M0 0 C-0.66 1.32 -1.32 2.64 -2 4 C-2.66 4 -3.32 4 -4 4 C-5.52299523 6.93720508 -6.80100302 9.9168649 -8 13 C-7.401875 12.484375 -6.80375 11.96875 -6.1875 11.4375 C-5.465625 10.963125 -4.74375 10.48875 -4 10 C-3.01 10.33 -2.02 10.66 -1 11 C-1.33 11.66 -1.66 12.32 -2 13 C-0.02 13.495 -0.02 13.495 2 14 C1.67 14.33 1.34 14.66 1 15 C2.98 15.99 2.98 15.99 5 17 C4.67 17.66 4.34 18.32 4 19 C4.24610068 21.09065819 4.24610068 21.09065819 4.8125 23.375 C5.06966797 24.53128906 5.06966797 24.53128906 5.33203125 25.7109375 C6.00841646 28.02884236 6.71549998 29.95296993 8 32 C11.73079241 33.05435438 14.32053938 33.05127446 18 32 C18.66 32.33 19.32 32.66 20 33 C20 33.66 20 34.32 20 35 C21.65 35.66 23.3 36.32 25 37 C25 37.66 25 38.32 25 39 C25.99 39.33 26.98 39.66 28 40 C28.33 40.99 28.66 41.98 29 43 C29.66 42.67 30.32 42.34 31 42 C31 42.66 31 43.32 31 44 C31.66 44 32.32 44 33 44 C33 44.66 33 45.32 33 46 C33.66 46.33 34.32 46.66 35 47 C32.125 47.125 32.125 47.125 29 47 C28.34 46.34 27.68 45.68 27 45 C26.01 45.33 25.02 45.66 24 46 C22.44146733 46.21803307 20.87817349 46.40366356 19.3125 46.5625 C18.50425781 46.64628906 17.69601562 46.73007813 16.86328125 46.81640625 C16.24839844 46.87699219 15.63351562 46.93757813 15 47 C16.98 47.99 18.96 48.98 21 50 C20.67 50.66 20.34 51.32 20 52 C22.97 52.99 22.97 52.99 26 54 C26 53.01 26 52.02 26 51 C30.7517398 51.43197635 32.92000054 52.32769295 36 56 C35.67 56.66 35.34 57.32 35 58 C33.35 58 31.7 58 30 58 C30 58.99 30 59.98 30 61 C30 61.66 30 62.32 30 63 C30.66 63 31.32 63 32 63 C32 63.66 32 64.32 32 65 C32.66 65.33 33.32 65.66 34 66 C31.02148438 65.90234375 31.02148438 65.90234375 28.04296875 65.8046875 C25.68640281 65.86745538 25.68640281 65.86745538 23 68 C23 68.99 23 69.98 23 71 C18.71 71 14.42 71 10 71 C9.01 72.98 9.01 72.98 8 75 C7.01 75.495 7.01 75.495 6 76 C7.98 76.99 9.96 77.98 12 79 C12 79.66 12 80.32 12 81 C12.66 81 13.32 81 14 81 C13.67 82.32 13.34 83.64 13 85 C13 84.34 13 83.68 13 83 C10.36 82.67 7.72 82.34 5 82 C5 82.66 5 83.32 5 84 C4.36191406 84.06058594 3.72382813 84.12117188 3.06640625 84.18359375 C2.24011719 84.26738281 1.41382813 84.35117188 0.5625 84.4375 C-0.67306641 84.55931641 -0.67306641 84.55931641 -1.93359375 84.68359375 C-3.98662025 84.78930815 -3.98662025 84.78930815 -5 86 C-4.01 86.66 -3.02 87.32 -2 88 C-2.99 88 -3.98 88 -5 88 C-5 88.66 -5 89.32 -5 90 C-2.03 90.99 -2.03 90.99 1 92 C1 92.66 1 93.32 1 94 C1.68707031 93.98839844 2.37414062 93.97679688 3.08203125 93.96484375 C3.98308594 93.95582031 4.88414062 93.94679688 5.8125 93.9375 C6.70582031 93.92589844 7.59914062 93.91429688 8.51953125 93.90234375 C11 94 11 94 14 95 C14 94.34 14 93.68 14 93 C13.01 92.67 12.02 92.34 11 92 C17.27 92 23.54 92 30 92 C30 91.34 30 90.68 30 90 C31.6256807 90.30893932 33.25052748 90.6222695 34.875 90.9375 C35.77992188 91.11152344 36.68484375 91.28554687 37.6171875 91.46484375 C40 92 40 92 42 93 C42 92.34 42 91.68 42 91 C39.03 90.505 39.03 90.505 36 90 C38.64738916 88.5393715 39.89448334 88 43 88 C45.1875 89.875 45.1875 89.875 47 92 C47 92.66 47 93.32 47 94 C47.99 93.67 48.98 93.34 50 93 C50.33 92.34 50.66 91.68 51 91 C50.34 90.67 49.68 90.34 49 90 C50.32 90 51.64 90 53 90 C53.33 88.35 53.66 86.7 54 85 C54.20625 85.598125 54.4125 86.19625 54.625 86.8125 C56.63843195 90.01568719 58.43830904 90.72796751 62 92 C65.35052235 92.23503664 68.64783353 92.17887054 72 92 C72 92.66 72 93.32 72 94 C71.01 94 70.02 94 69 94 C69 94.66 69 95.32 69 96 C69.78503906 95.95359375 70.57007813 95.9071875 71.37890625 95.859375 C78.36091257 95.61950239 82.23809235 96.07699905 88 100 C88.99 100 89.98 100 91 100 C90.484375 99.071875 89.96875 98.14375 89.4375 97.1875 C88 94 88 94 89 91 C89.99 91.66 90.98 92.32 92 93 C92 93.66 92 94.32 92 95 C92.99 95 93.98 95 95 95 C96.6875 96.5 96.6875 96.5 98 98 C98.66 96.68 99.32 95.36 100 94 C101.32 94.66 102.64 95.32 104 96 C104 96.99 104 97.98 104 99 C105.134375 98.814375 106.26875 98.62875 107.4375 98.4375 C108.613125 98.293125 109.78875 98.14875 111 98 C113.05922402 100.05922402 112.41427579 104.21708124 112.5625 107.0625 C112.60568359 107.82111328 112.64886719 108.57972656 112.69335938 109.36132812 C112.79973633 111.24065438 112.90039934 113.12030244 113 115 C108.38987758 117.95047835 105.63470383 119.5497272 100 119 C98.66666667 122 98.66666667 122 100 125 C96.8125 125.3125 96.8125 125.3125 93 125 C90.375 122.75 90.375 122.75 88 120 C84.26730973 116.6602245 80.64163855 114.85665542 76 113 C74.65986503 112.34711373 73.32258472 111.68774405 72 111 C72 111.66 72 112.32 72 113 C71.34 113.66 70.68 114.32 70 115 C71.32 115.99 72.64 116.98 74 118 C73.67 118.66 73.34 119.32 73 120 C71.35 119.34 69.7 118.68 68 118 C68 117.34 68 116.68 68 116 C67.01 116.33 66.02 116.66 65 117 C65 118.32 65 119.64 65 121 C67.2093711 122.91892297 67.2093711 122.91892297 70 124.5625 C72.8125 126.31640625 72.8125 126.31640625 75 128 C75 128.99 75 129.98 75 131 C76.8253125 131.2165625 76.8253125 131.2165625 78.6875 131.4375 C81.82670377 131.82780953 84.9075134 132.32351856 88 133 C86.68 133.33 85.36 133.66 84 134 C85.62366466 137.24732932 88.75387839 137.70155136 92 139 C92 139.66 92 140.32 92 141 C91.34 141.33 90.68 141.66 90 142 C90 142.66 90 143.32 90 144 C90.99 144 91.98 144 93 144 C93 144.66 93 145.32 93 146 C89.535 146.99 89.535 146.99 86 148 C91.0502935 149.26257337 95.80056115 150.11753453 101 150.4375 C106.38314951 150.81017958 111.00565771 151.9946959 116 154 C116 152.68 116 151.36 116 150 C114.02 149.34 112.04 148.68 110 148 C111.32 147.34 112.64 146.68 114 146 C114 144.02 114 142.04 114 140 C113.360625 139.87625 112.72125 139.7525 112.0625 139.625 C111.381875 139.41875 110.70125 139.2125 110 139 C109.67 138.34 109.34 137.68 109 137 C110.62318979 136.63762737 112.2486358 136.28534843 113.875 135.9375 C114.77992188 135.74027344 115.68484375 135.54304687 116.6171875 135.33984375 C119 135 119 135 121 136 C121 136.66 121 137.32 121 138 C121.556875 138.061875 122.11375 138.12375 122.6875 138.1875 C125 139 125 139 127.4375 141.5 C130.20289891 144.19795015 131.32070425 144.45946907 135 145 C134.57847656 145.77085937 134.15695312 146.54171875 133.72265625 147.3359375 C133.17480469 148.33882812 132.62695312 149.34171875 132.0625 150.375 C131.51722656 151.37273437 130.97195313 152.37046875 130.41015625 153.3984375 C128.1101344 157.6416911 128.06204099 159.20598731 129 164 C129.99 164.33 130.98 164.66 132 165 C132 165.66 132 166.32 132 167 C131.34 167 130.68 167 130 167 C130.66 168.65 131.32 170.3 132 172 C131.34 172 130.68 172 130 172 C129.97421875 172.75925781 129.9484375 173.51851562 129.921875 174.30078125 C129.86515625 175.29464844 129.8084375 176.28851563 129.75 177.3125 C129.70359375 178.29863281 129.6571875 179.28476563 129.609375 180.30078125 C129 183 129 183 127.140625 184.85546875 C125 186 125 186 122 186 C121.67 184.02 121.34 182.04 121 180 C117.87525373 181.63473516 117.87525373 181.63473516 117.3125 184.125 C117.209375 184.74375 117.10625 185.3625 117 186 C117.66 186.33 118.32 186.66 119 187 C118.57228451 188.41965142 118.13234457 189.8356224 117.6875 191.25 C117.44386719 192.03890625 117.20023437 192.8278125 116.94921875 193.640625 C115.89591915 196.25870303 115.01660687 198.01034111 113 200 C106.07777259 201.28526737 100.1694483 200.08472415 94 197 C92.01178687 196.60235737 90.01267638 196.24544834 88 196 C87.9175 196.61875 87.835 197.2375 87.75 197.875 C87 200 87 200 84.9375 201.25 C84.298125 201.4975 83.65875 201.745 83 202 C83 202.33 83 202.66 83 203 C81.906875 203.12375 80.81375 203.2475 79.6875 203.375 C75.92618198 203.75464801 75.92618198 203.75464801 73 206 C72.64155678 207.9000138 72.64155678 207.9000138 72.6875 210.0625 C72.25731698 215.85126721 69.41839266 219.48445744 66 224 C65.34 224.99 64.68 225.98 64 227 C63.34 227 62.68 227 62 227 C61.71125 227.886875 61.4225 228.77375 61.125 229.6875 C60.1670046 232.50826422 59.15553319 235.25560867 58 238 C57.71125 238.7425 57.4225 239.485 57.125 240.25 C56 242 56 242 53.875 242.75 C53.25625 242.8325 52.6375 242.915 52 243 C51.814375 244.3921875 51.814375 244.3921875 51.625 245.8125 C51 249 51 249 49 252 C52.3 252.33 55.6 252.66 59 253 C59.433125 254.2065625 59.433125 254.2065625 59.875 255.4375 C60.73262568 258.1326468 60.73262568 258.1326468 63 259 C63 259.66 63 260.32 63 261 C61.35 260.67 59.7 260.34 58 260 C58 260.99 58 261.98 58 263 C59.65 263 61.3 263 63 263 C63.33 262.34 63.66 261.68 64 261 C64.66 261 65.32 261 66 261 C66 261.66 66 262.32 66 263 C67.65 262.67 69.3 262.34 71 262 C70.67 263.32 70.34 264.64 70 266 C67.69 266.33 65.38 266.66 63 267 C63.33 268.65 63.66 270.3 64 272 C62.02 272.66 60.04 273.32 58 274 C58 274.66 58 275.32 58 276 C58.99 276.33 59.98 276.66 61 277 C60.835 277.804375 60.67 278.60875 60.5 279.4375 C59.80163321 282.3943237 59.80163321 282.3943237 61 285 C60.01 285 59.02 285 58 285 C58 285.99 58 286.98 58 288 C58.99 287.67 59.98 287.34 61 287 C61 287.99 61 288.98 61 290 C60.34 290 59.68 290 59 290 C59 290.66 59 291.32 59 292 C57.35 292 55.7 292 54 292 C54.99 290.35 55.98 288.7 57 287 C54.69 287.66 52.38 288.32 50 289 C50.33 290.32 50.66 291.64 51 293 C49.02 293 47.04 293 45 293 C45.14566406 292.43539063 45.29132813 291.87078125 45.44140625 291.2890625 C46.19042061 288.219675 46.78970879 285.12264964 47.40234375 282.0234375 C48 280 48 280 50 278 C50.67292501 276.03309626 50.67292501 276.03309626 51.125 273.875 C51.41375 272.59625 51.7025 271.3175 52 270 C48.935084 272.04327733 47.5067802 273.66355813 46 277 C45.34 277.66 44.68 278.32 44 279 C43.29289322 280.64991582 42.62056011 282.31562256 42 284 C41.34 283.67 40.68 283.34 40 283 C40 281.02 40 279.04 40 277 C40.66 277 41.32 277 42 277 C41.79375 276.38125 41.5875 275.7625 41.375 275.125 C41.25125 274.42375 41.1275 273.7225 41 273 C41.66 272.34 42.32 271.68 43 271 C43.99 271 44.98 271 46 271 C46 270.34 46 269.68 46 269 C45.34 268.67 44.68 268.34 44 268 C44.66 268 45.32 268 46 268 C45.98839844 267.28972656 45.97679687 266.57945312 45.96484375 265.84765625 C45.95582031 264.92855469 45.94679688 264.00945312 45.9375 263.0625 C45.92009766 261.68771484 45.92009766 261.68771484 45.90234375 260.28515625 C46 258 46 258 47 257 C46.34 256.67 45.68 256.34 45 256 C45 255.34 45 254.68 45 254 C43.68 254 42.36 254 41 254 C41.33 255.98 41.66 257.96 42 260 C41.01 260 40.02 260 39 260 C39 260.99 39 261.98 39 263 C39.66 263 40.32 263 41 263 C41 263.66 41 264.32 41 265 C40.01 265.66 39.02 266.32 38 267 C37.34 267.99 36.68 268.98 36 270 C35.01 270.33 34.02 270.66 33 271 C31.34637947 267.26137967 29.99575243 263.98300973 29 260 C27.35 263.3 25.7 266.6 24 270 C23.34 270 22.68 270 22 270 C21.938125 270.9075 21.87625 271.815 21.8125 272.75 C20.7995215 276.80191401 19.3718069 277.67184762 16 280 C15.2265625 280.804375 15.2265625 280.804375 14.4375 281.625 C11.77500251 284.17173673 9.67291706 285 6 285 C8.0058619 289.64515387 10.0620242 291.91347843 14 295 C14 295.99 14 296.98 14 298 C15.32 298.66 16.64 299.32 18 300 C18 300.66 18 301.32 18 302 C18.66 302 19.32 302 20 302 C20.33 303.32 20.66 304.64 21 306 C24.3 305.67 27.6 305.34 31 305 C31.33 305.66 31.66 306.32 32 307 C31.39671875 307.06058594 30.7934375 307.12117188 30.171875 307.18359375 C28.97304688 307.30927734 28.97304688 307.30927734 27.75 307.4375 C26.96109375 307.51871094 26.1721875 307.59992188 25.359375 307.68359375 C23.17173058 307.97696991 21.13280685 308.44399333 19 309 C14.95609089 309.66173058 11.09885685 310.12420778 7 310 C7 310.66 7 311.32 7 312 C6.34 312 5.68 312 5 312 C4.67 312.66 4.34 313.32 4 314 C4 313.34 4 312.68 4 312 C1.36 312.33 -1.28 312.66 -4 313 C-4 312.01 -4 311.02 -4 310 C-7.35458155 309.23477199 -7.35458155 309.23477199 -11 309 C-12.96431405 310.29264699 -12.96431405 310.29264699 -14 312 C-12.7934375 311.9690625 -12.7934375 311.9690625 -11.5625 311.9375 C-9 312 -9 312 -8 313 C-7.34 313 -6.68 313 -6 313 C-6 314.65 -6 316.3 -6 318 C-5.01 316.68 -4.02 315.36 -3 314 C-2.67 314.33 -2.34 314.66 -2 315 C-1.030625 315 -0.06125 315 0.9375 315 C4 315 4 315 6 316 C6 315.34 6 314.68 6 314 C7.32 314.33 8.64 314.66 10 315 C10.66 314.01 11.32 313.02 12 312 C12.391875 312.66 12.78375 313.32 13.1875 314 C14.81694897 316.27006968 14.81694897 316.27006968 17.375 316.125 C18.24125 316.08375 19.1075 316.0425 20 316 C22.375 316.8125 22.375 316.8125 25 318 C26.27003236 318.54354203 27.54089637 319.08514413 28.8125 319.625 C30.3903125 320.305625 30.3903125 320.305625 32 321 C31.67 321.66 31.34 322.32 31 323 C29.02 322.67 27.04 322.34 25 322 C24.34 323.32 23.68 324.64 23 326 C22.67 324.68 22.34 323.36 22 322 C21.814375 322.86625 21.814375 322.86625 21.625 323.75 C20.99351176 326.02335767 20.11141809 327.9253529 19 330 C17.02 329.67 15.04 329.34 13 329 C12.690625 330.11375 12.38125 331.2275 12.0625 332.375 C11 336 11 336 10 338 C10.99 338 11.98 338 13 338 C13 336.68 13 335.36 13 334 C14.98 334 16.96 334 19 334 C19 335.32 19 336.64 19 338 C20.32 337.34 21.64 336.68 23 336 C23.33 337.98 23.66 339.96 24 342 C25.11375 342.12375 26.2275 342.2475 27.375 342.375 C31 343 31 343 33 345 C33.66 345 34.32 345 35 345 C35 343.35 35 341.7 35 340 C35.66 340.33 36.32 340.66 37 341 C37.625 343.0625 37.625 343.0625 38 345 C38.33 344.34 38.66 343.68 39 343 C39.99 343 40.98 343 42 343 C42.99435406 346.09354597 42.87840996 347.90279155 42 351 C42.54527344 351.10957031 43.09054687 351.21914063 43.65234375 351.33203125 C49.25535065 352.51009937 54.6054387 354.087035 60 356 C59.67 356.66 59.34 357.32 59 358 C56.69 357.67 54.38 357.34 52 357 C51.67 357.66 51.34 358.32 51 359 C53.31 359.33 55.62 359.66 58 360 C58.625 361.875 58.625 361.875 59 364 C58.34 364.66 57.68 365.32 57 366 C56.67 365.01 56.34 364.02 56 363 C55.34 363 54.68 363 54 363 C53.67 363.99 53.34 364.98 53 366 C52.01 366 51.02 366 50 366 C50 364.35 50 362.7 50 361 C46.04 361 42.08 361 38 361 C37.67 360.01 37.34 359.02 37 358 C36.34 358 35.68 358 35 358 C34.67 360.31 34.34 362.62 34 365 C36.31 365.66 38.62 366.32 41 367 C41.33 368.32 41.66 369.64 42 371 C43.98 371.33 45.96 371.66 48 372 C48 374.64 48 377.28 48 380 C48.66 379.01 49.32 378.02 50 377 C50.103125 377.639375 50.20625 378.27875 50.3125 378.9375 C50.6528125 379.9584375 50.6528125 379.9584375 51 381 C51.99 381.33 52.98 381.66 54 382 C54.33 381.01 54.66 380.02 55 379 C55.33 381.31 55.66 383.62 56 386 C56.99 385.34 57.98 384.68 59 384 C59.66 384.66 60.32 385.32 61 386 C61.66 386 62.32 386 63 386 C63.33 385.34 63.66 384.68 64 384 C64 384.66 64 385.32 64 386 C64.99 386 65.98 386 67 386 C68.92457771 380.66202031 70.3462615 375.6657337 71 370 C71.17917969 369.23042969 71.35835937 368.46085937 71.54296875 367.66796875 C72.74095323 360.67460635 71.30364236 353.60377477 69 347 C68.875 343.375 68.875 343.375 69 340 C69 335.91621923 68.19287411 332.87684087 67 329 C67.66 329 68.32 329 69 329 C69.474375 329.639375 69.94875 330.27875 70.4375 330.9375 C74.45605838 334.17194943 78.97822159 333.82683523 84 334 C84 334.33 84 334.66 84 335 C77.25 336.125 77.25 336.125 75 335 C75.33 335.99 75.66 336.98 76 338 C77.02673828 337.70802734 77.02673828 337.70802734 78.07421875 337.41015625 C81.67489759 336.90538819 84.29675819 337.54968641 87.8125 338.4375 C88.97394531 338.72496094 90.13539063 339.01242187 91.33203125 339.30859375 C92.65267578 339.65083984 92.65267578 339.65083984 94 340 C94 340.66 94 341.32 94 342 C93.01 342 92.02 342 91 342 C90.71125 342.61875 90.4225 343.2375 90.125 343.875 C88.53593878 346.87656008 86.84123955 348.1058403 84 350 C84.94875 349.896875 85.8975 349.79375 86.875 349.6875 C92.18857028 349.63294589 96.48906833 352.45863005 101 355 C100.360625 355.28875 99.72125 355.5775 99.0625 355.875 C96.84793921 356.82823451 96.84793921 356.82823451 96 359 C96.66 359 97.32 359 98 359 C98 359.99 98 360.98 98 362 C97.34 362 96.68 362 96 362 C96 362.66 96 363.32 96 364 C97.134375 364.12375 98.26875 364.2475 99.4375 364.375 C101.2009375 364.684375 101.2009375 364.684375 103 365 C103.33 365.66 103.66 366.32 104 367 C103.67 367.66 103.34 368.32 103 369 C103.66 369 104.32 369 105 369 C106.01866229 370.65532623 107.01810813 372.32260138 108 374 C108.66 374.33 109.32 374.66 110 375 C110.33 374.34 110.66 373.68 111 373 C112.32 374.98 113.64 376.96 115 379 C115.33 378.34 115.66 377.68 116 377 C114.13918822 371.65140921 114.13918822 371.65140921 110 368 C110.33 367.34 110.66 366.68 111 366 C114.82622743 367.5588334 117.25147379 369.95433582 120 373 C120.33 373.99 120.66 374.98 121 376 C121.66 376.33 122.32 376.66 123 377 C124.44512404 380.6128101 125 383.06687842 125 387 C125.66 387 126.32 387 127 387 C126.9071875 385.8553125 126.9071875 385.8553125 126.8125 384.6875 C127.03701008 381.46952212 127.66574212 381.06492043 130 379 C132.42623888 375.34750321 132.29962198 371.92625926 132.3125 367.625 C132.32925781 366.33851563 132.34601563 365.05203125 132.36328125 363.7265625 C131.977957 359.77388148 130.94707352 357.42093423 129 354 C128.67 353.01 128.34 352.02 128 351 C129.98 351 131.96 351 134 351 C133.67 351.99 133.34 352.98 133 354 C133.27571139 356.00875442 133.60235737 358.01178687 134 360 C134.99 359.67 135.98 359.34 137 359 C137 358.01 137 357.02 137 356 C136.34 356 135.68 356 135 356 C135 355.34 135 354.68 135 354 C135.66 354 136.32 354 137 354 C138.34124734 343.36581198 138.34124734 343.36581198 136 333 C137.32 333.66 138.64 334.32 140 335 C140 335.99 140 336.98 140 338 C140.66 337.67 141.32 337.34 142 337 C141.76995266 331.6092003 141.76995266 331.6092003 139.4375 327 C138.963125 326.67 138.48875 326.34 138 326 C138.33 327.32 138.66 328.64 139 330 C138.01 330 137.02 330 136 330 C134.515 325.545 134.515 325.545 133 321 C133.99 321 134.98 321 136 321 C136.33 321.66 136.66 322.32 137 323 C139.02463255 323.65213292 139.02463255 323.65213292 141 324 C141 324.66 141 325.32 141 326 C141.969375 326.309375 142.93875 326.61875 143.9375 326.9375 C147 328 147 328 148 329 C148 327.68 148 326.36 148 325 C146.824375 325.0928125 146.824375 325.0928125 145.625 325.1875 C144.325625 325.0946875 144.325625 325.0946875 143 325 C142.34 324.01 141.68 323.02 141 322 C141.99 322 142.98 322 144 322 C144.33 321.34 144.66 320.68 145 320 C144.319375 320.0825 143.63875 320.165 142.9375 320.25 C138.83124335 319.90053135 136.47678105 318.18150968 133 316 C133.0825 315.2575 133.165 314.515 133.25 313.75 C132.92894816 310.21842973 131.64734383 309.23369636 129 307 C129.928125 307.04125 130.85625 307.0825 131.8125 307.125 C135.15809719 307.27136339 135.15809719 307.27136339 138 305 C133.05 303.515 133.05 303.515 128 302 C131 300 131 300 134.1875 300.375 C135.5796875 300.684375 135.5796875 300.684375 137 301 C136.67 300.01 136.34 299.02 136 298 C139.3776758 299.12589193 140.71363192 300.31943052 143 303 C143 303.99 143 304.98 143 306 C143.66 306.33 144.32 306.66 145 307 C144.34 307.33 143.68 307.66 143 308 C144.65 308.66 146.3 309.32 148 310 C147.01 310.33 146.02 310.66 145 311 C146.93254772 313.0245738 148.63158688 314.42105792 151 316 C150.030625 315.835 149.06125 315.67 148.0625 315.5 C146.04016429 315.14007707 146.04016429 315.14007707 144 315 C144.99 315.66 145.98 316.32 147 317 C147.12375 317.78375 147.2475 318.5675 147.375 319.375 C148.23733284 322.99679793 150.03022943 323.84016686 153 326 C155.88418505 328.73627812 158.59913633 331.6016308 161.25 334.5625 C161.75015625 335.12066406 162.2503125 335.67882812 162.765625 336.25390625 C164.11592413 338.16398128 164.5800594 339.71532318 165 342 C162.36 341.67 159.72 341.34 157 341 C159.97 342.65 162.94 344.3 166 346 C166 346.66 166 347.32 166 348 C166.66 348 167.32 348 168 348 C170.5016795 356.91223322 170.02337643 364.02126711 168 373 C166.68 373 165.36 373 164 373 C163.67 372.01 163.34 371.02 163 370 C163.33 369.34 163.66 368.68 164 368 C162.68 368.33 161.36 368.66 160 369 C160 371.31 160 373.62 160 376 C159.34 376 158.68 376 158 376 C157.67 377.98 157.34 379.96 157 382 C157.99 382 158.98 382 160 382 C161.60546875 383.42578125 161.60546875 383.42578125 163.1875 385.3125 C163.71730469 385.92738281 164.24710937 386.54226563 164.79296875 387.17578125 C166 389 166 389 166 392 C165.01 391.67 164.02 391.34 163 391 C163 390.01 163 389.02 163 388 C162.01 388 161.02 388 160 388 C160.33 388.99 160.66 389.98 161 391 C160.01 390.67 159.02 390.34 158 390 C157.67 390.66 157.34 391.32 157 392 C157.66 392 158.32 392 159 392 C158.835 392.598125 158.67 393.19625 158.5 393.8125 C157.8885876 396.11344336 157.8885876 396.11344336 158 399 C157.34 399 156.68 399 156 399 C156 399.99 156 400.98 156 402 C152.6433347 405.34981496 148.77307759 408.1341044 145 411 C143.95070313 411.80050781 142.90140625 412.60101563 141.8203125 413.42578125 C131.97454405 420.75914074 120.70061649 429.0997945 109 433 C108.38125 432.030625 107.7625 431.06125 107.125 430.0625 C105.34321154 426.97164638 105.34321154 426.97164638 103 426 C103 425.34 103 424.68 103 424 C102.01 424.33 101.02 424.66 100 425 C100 426.32 100 427.64 100 429 C99.05898438 428.98839844 98.11796875 428.97679687 97.1484375 428.96484375 C95.90320313 428.95582031 94.65796875 428.94679688 93.375 428.9375 C92.14523437 428.92589844 90.91546875 428.91429687 89.6484375 428.90234375 C86.31924173 428.99145499 83.26676882 429.39167208 80 430 C79.34 430 78.68 430 78 430 C78.63921965 432.47627099 78.63921965 432.47627099 80 435 C82.42383077 436.16953416 82.42383077 436.16953416 85 437 C86.8125 438.5 86.8125 438.5 88 440 C88 440.66 88 441.32 88 442 C48.06761859 457.41156895 2.89770347 460.79781848 -39 452 C-40.10456543 451.76925781 -41.20913086 451.53851563 -42.34716797 451.30078125 C-81.16459544 442.86924119 -116.49597049 423.89461224 -145.67578125 397.078125 C-148.04899268 394.95619478 -150.50897905 392.98121133 -153 391 C-157.96494087 386.31088918 -162.58921684 381.21137051 -167 376 C-167.42756592 375.51015625 -167.85513184 375.0203125 -168.2956543 374.515625 C-172.38702609 369.41532778 -173.55506207 364.07429437 -174.8125 357.75 C-175.02841797 356.77675781 -175.24433594 355.80351562 -175.46679688 354.80078125 C-177.48146745 345.16873717 -177.75256672 336.07424751 -175.375 326.5 C-175.1989624 325.77586914 -175.0229248 325.05173828 -174.84155273 324.30566406 C-172.57578634 315.60620419 -168.86636734 307.93847986 -162 302 C-161.443125 301.401875 -160.88625 300.80375 -160.3125 300.1875 C-159 299 -159 299 -157 299 C-156.7525 298.39671875 -156.505 297.7934375 -156.25 297.171875 C-154.79440027 294.64277047 -153.48875791 293.73227493 -151 292.25 C-150.29875 291.82203125 -149.5975 291.3940625 -148.875 290.953125 C-147 290 -147 290 -145 290 C-145 289.34 -145 288.68 -145 288 C-142.69 287.67 -140.38 287.34 -138 287 C-138.40992188 287.72445313 -138.81984375 288.44890625 -139.2421875 289.1953125 C-139.78101563 290.16210938 -140.31984375 291.12890625 -140.875 292.125 C-141.40867188 293.07632812 -141.94234375 294.02765625 -142.4921875 295.0078125 C-143.97764547 297.95563842 -145.03646764 300.8474718 -146 304 C-145.52949219 303.14535156 -145.05898437 302.29070312 -144.57421875 301.41015625 C-143.64029297 299.75306641 -143.64029297 299.75306641 -142.6875 298.0625 C-142.07261719 296.96035156 -141.45773438 295.85820312 -140.82421875 294.72265625 C-139 292 -139 292 -136 291 C-135.5978125 290.1646875 -135.5978125 290.1646875 -135.1875 289.3125 C-133.467157 285.96235837 -130.91424712 283.37574493 -128 281 C-127.34 281 -126.68 281 -126 281 C-125.566875 279.824375 -125.566875 279.824375 -125.125 278.625 C-124 276 -124 276 -122 274 C-122.33 273.34 -122.66 272.68 -123 272 C-123.78375 272.66 -124.5675 273.32 -125.375 274 C-128 276 -128 276 -130 276 C-128.66666667 272 -127.33333333 268 -126 264 C-125.34 264 -124.68 264 -124 264 C-123.938125 263.278125 -123.87625 262.55625 -123.8125 261.8125 C-122.7463595 258.12201365 -120.85208836 256.50427271 -118 254 C-117.34 253.67 -116.68 253.34 -116 253 C-117.32 252.67 -118.64 252.34 -120 252 C-119.01 250.68 -118.02 249.36 -117 248 C-116.01 248.99 -115.02 249.98 -114 251 C-111.525 248.525 -111.525 248.525 -109 246 C-109.99 246.33 -110.98 246.66 -112 247 C-111.67 246.01 -111.34 245.02 -111 244 C-110.01 244 -109.02 244 -108 244 C-108 243.34 -108 242.68 -108 242 C-108.66 241.67 -109.32 241.34 -110 241 C-109.38125 239.9790625 -109.38125 239.9790625 -108.75 238.9375 C-107.48960038 236.8218292 -106.28791847 234.67078114 -105.125 232.5 C-101.9300418 226.90882315 -97.02740567 222.91020441 -92 219 C-91.34 219 -90.68 219 -90 219 C-90 217.68 -90 216.36 -90 215 C-89.01 214.67 -88.02 214.34 -87 214 C-86.47075168 212.08147484 -85.95366464 210.15745943 -85.5390625 208.2109375 C-84.74214965 204.94243985 -83.39964888 202.05377938 -82 199 C-81.01 199.33 -80.02 199.66 -79 200 C-76.77839508 188.081743 -75.45631012 176.02988041 -74 164 C-73.34 164 -72.68 164 -72 164 C-71.814375 162.0509375 -71.814375 162.0509375 -71.625 160.0625 C-71.4140625 157.84765625 -71.4140625 157.84765625 -71 156 C-70.34 155.67 -69.68 155.34 -69 155 C-69.51405169 159.96916636 -70.23384882 164.29026351 -72 169 C-71.34 169 -70.68 169 -70 169 C-69.63571223 167.0852312 -69.28394694 165.16807707 -68.9375 163.25 C-68.74027344 162.18265625 -68.54304688 161.1153125 -68.33984375 160.015625 C-68.02843063 157.25228095 -68.1008584 155.59053383 -69 153 C-68.34 153 -67.68 153 -67 153 C-66.731875 152.2575 -66.46375 151.515 -66.1875 150.75 C-65 148 -65 148 -63.52661133 146.15698242 C-61.78579691 143.69734779 -61.14533796 141.64840684 -60.38671875 138.73828125 C-60.11093994 137.70888428 -59.83516113 136.6794873 -59.55102539 135.61889648 C-59.26606201 134.52778564 -58.98109863 133.4366748 -58.6875 132.3125 C-55.91213063 122.01432078 -52.74844739 111.98212914 -49 102 C-48.01 102 -47.02 102 -46 102 C-45.06242076 97.97526961 -44.84040711 94.12412314 -44.6875 90 C-43.99871885 77.6110622 -40.10169158 65.15330888 -31.9375 55.58203125 C-29.73646376 52.64879546 -28.94680168 50.21687234 -28 46.6875 C-26.47355787 41.37500063 -24.64194349 36.84356306 -22 32 C-20.99087397 30.00944943 -20.00484828 28.01004988 -19.03515625 26 C-16.31516743 20.40709127 -16.31516743 20.40709127 -14.5 18.0625 C-12.96796209 15.95594787 -12.12297255 14.02412601 -11.125 11.625 C-9.07782227 6.85350113 -5.95374192 0 0 0 Z M17 38 C17.66 38.66 18.32 39.32 19 40 C19.99 39.67 20.98 39.34 22 39 C20.35 38.67 18.7 38.34 17 38 Z M13 49 C17 50 17 50 17 50 Z M24 58 C24.66 59.32 25.32 60.64 26 62 C26.99 61.67 27.98 61.34 29 61 C27.35 60.01 25.7 59.02 24 58 Z M68 102 C68.33 102.99 68.66 103.98 69 105 C69.66 105 70.32 105 71 105 C71 104.01 71 103.02 71 102 C70.01 102 69.02 102 68 102 Z M78 103 C78 103.99 78 104.98 78 106 C78.66 106 79.32 106 80 106 C79.67 105.01 79.34 104.02 79 103 C78.67 103 78.34 103 78 103 Z M-30 119 C-32.16567228 123.6266635 -33.57180023 127.97429591 -34.5703125 132.984375 C-35 135 -35 135 -36 138 C-33.98567734 137.49743888 -33.98567734 137.49743888 -32 136 C-30.55760783 132.10554113 -30 129.16477964 -30 125 C-29.67 124.67 -29.34 124.34 -29 124 C-28.95936168 122.33382885 -28.957279 120.66611905 -29 119 C-29.33 119 -29.66 119 -30 119 Z M57 138 C57 138.33 57 138.66 57 139 C58.98 139 60.96 139 63 139 C63 138.67 63 138.34 63 138 C61.02 138 59.04 138 57 138 Z M-34 139 C-34.99 139.495 -34.99 139.495 -36 140 C-36 140.66 -36 141.32 -36 142 C-34.68 141.34 -33.36 140.68 -32 140 C-32.66 139.67 -33.32 139.34 -34 139 Z M-34 142 C-34.66 143.98 -35.32 145.96 -36 148 C-32.87802522 146.6910428 -32.87802522 146.6910428 -31 144 C-31.66 144 -32.32 144 -33 144 C-33.33 143.34 -33.66 142.68 -34 142 Z M54 152 C54 152.33 54 152.66 54 153 C56.64 153 59.28 153 62 153 C62 152.67 62 152.34 62 152 C59.36 152 56.72 152 54 152 Z M74 152 C74 152.33 74 152.66 74 153 C78.28297531 154.05619003 82.42985646 154.11702092 86.8125 154.0625 C87.50537109 154.05798828 88.19824219 154.05347656 88.91210938 154.04882812 C90.60811068 154.03713156 92.30406703 154.01919924 94 154 C94 153.67 94 153.34 94 153 C87.30324864 151.96973056 80.7685324 151.89847201 74 152 Z M47 153 C51 154 51 154 51 154 Z M95 154 C95 154.33 95 154.66 95 155 C96.98 155 98.96 155 101 155 C101 154.67 101 154.34 101 154 C99.02 154 97.04 154 95 154 Z M106 156 C110 157 110 157 110 157 Z M118 155 C118 155.66 118 156.32 118 157 C115.36 157 112.72 157 110 157 C113.28463659 159.18975773 116.20696275 159.99806563 120 161 C120.33 160.67 120.66 160.34 121 160 C120.67 160.99 120.34 161.98 120 163 C120.66 163.66 121.32 164.32 122 165 C123.6627026 162.32521756 124.99983813 160.0004856 126 157 C124.68 156.34 123.36 155.68 122 155 C121.34 155.66 120.68 156.32 120 157 C119.34 156.34 118.68 155.68 118 155 Z M117 164 C116.01 164.66 115.02 165.32 114 166 C115.65 165.67 117.3 165.34 119 165 C118.34 164.67 117.68 164.34 117 164 Z M75 175 C76 177 76 177 76 177 Z M71 185 C70.67 186.65 70.34 188.3 70 190 C70.66 189.67 71.32 189.34 72 189 C72.65213292 186.97536745 72.65213292 186.97536745 73 185 C72.34 185 71.68 185 71 185 Z M-90 228 C-90 228.66 -90 229.32 -90 230 C-86.59679258 228.98823563 -85.24274669 228.35156418 -83.1875 225.375 C-82.795625 224.59125 -82.40375 223.8075 -82 223 C-85.52914548 223 -87.51088438 225.72732921 -90 228 Z M-102 237 C-102.33 237.66 -102.66 238.32 -103 239 C-102.34 239 -101.68 239 -101 239 C-101.33 238.34 -101.66 237.68 -102 237 Z M-90 240 C-90 240.66 -90 241.32 -90 242 C-88.02 241.34 -86.04 240.68 -84 240 C-84 239.34 -84 238.68 -84 238 C-87.18490007 237.7226499 -87.18490007 237.7226499 -90 240 Z M-105 239 C-105 239.66 -105 240.32 -105 241 C-105.99 241.33 -106.98 241.66 -108 242 C-106.02 242.99 -106.02 242.99 -104 244 C-104 243.34 -104 242.68 -104 242 C-103.34 242 -102.68 242 -102 242 C-102.33 241.01 -102.66 240.02 -103 239 C-103.66 239 -104.32 239 -105 239 Z M45 249 C46 251 46 251 46 251 Z M44 251 C43.67 251.66 43.34 252.32 43 253 C43.66 253 44.32 253 45 253 C44.67 252.34 44.34 251.68 44 251 Z M-115.125 280.5 C-116.07375 281.325 -117.0225 282.15 -118 283 C-114.75434142 283.34055197 -114.75434142 283.34055197 -112.3125 280.5 C-111.549375 279.675 -110.78625 278.85 -110 278 C-112.58926331 278 -113.20051661 278.82653618 -115.125 280.5 Z M-124.625 281.875 C-125.57246094 282.67550781 -125.57246094 282.67550781 -126.5390625 283.4921875 C-128.23195173 284.88947988 -128.23195173 284.88947988 -128 287 C-127.38125 286.690625 -126.7625 286.38125 -126.125 286.0625 C-124.75 285.375 -123.375 284.6875 -122 284 C-122 283.34 -122 282.68 -122 282 C-121.01 281.67 -120.02 281.34 -119 281 C-119 280.34 -119 279.68 -119 279 C-121.7406949 279 -122.57095288 280.10835042 -124.625 281.875 Z M49 282 C49.33 282.66 49.66 283.32 50 284 C50.33 283.34 50.66 282.68 51 282 C50.34 282 49.68 282 49 282 Z M7 295 C7 295.99 7 296.98 7 298 C7.66 298 8.32 298 9 298 C9 297.01 9 296.02 9 295 C8.34 295 7.68 295 7 295 Z M-2 302 C-1.67 303.65 -1.34 305.3 -1 307 C-0.34 306.67 0.32 306.34 1 306 C0.67 304.68 0.34 303.36 0 302 C-0.66 302 -1.32 302 -2 302 Z M-148 307 C-148.69937202 308.4317616 -149.38412718 309.87067032 -150.0625 311.3125 C-150.44535156 312.11300781 -150.82820313 312.91351563 -151.22265625 313.73828125 C-152.29735514 316.12028753 -152.29735514 316.12028753 -151 319 C-149.35 315.7 -147.7 312.4 -146 309 C-146.66 308.34 -147.32 307.68 -148 307 Z M135 313 C135 313.66 135 314.32 135 315 C135.99 315.33 136.98 315.66 138 316 C138 315.01 138 314.02 138 313 C137.01 313 136.02 313 135 313 Z M-2 316 C-1.34 316.66 -0.68 317.32 0 318 C0.33 317.34 0.66 316.68 1 316 C0.01 316 -0.98 316 -2 316 Z M-4 318 C-3 320 -3 320 -3 320 Z M7 319 C7 319.66 7 320.32 7 321 C9.97 321.495 9.97 321.495 13 322 C13.33 320.35 13.66 318.7 14 317 C11.64712386 317 9.20626776 318.24893012 7 319 Z M-153 319 C-153.99 320.485 -153.99 320.485 -155 322 C-154.67 322.99 -154.34 323.98 -154 325 C-153.34 323.02 -152.68 321.04 -152 319 C-152.33 319 -152.66 319 -153 319 Z M-8 319 C-7 321 -7 321 -7 321 Z M15 320 C15 320.66 15 321.32 15 322 C14.34 322 13.68 322 13 322 C13.33 322.66 13.66 323.32 14 324 C14.66 324 15.32 324 16 324 C16.33 322.68 16.66 321.36 17 320 C16.34 320 15.68 320 15 320 Z M-5 322 C-4 324 -4 324 -4 324 Z M-156 325 C-155 327 -155 327 -155 327 Z M-158 329 C-157 331 -157 331 -157 331 Z M6 329 C5.67 329.99 5.34 330.98 5 332 C4.01 332.33 3.02 332.66 2 333 C2 333.99 2 334.98 2 336 C2.99 336 3.98 336 5 336 C5 336.66 5 337.32 5 338 C7.03241727 337.36020151 7.03241727 337.36020151 9 336 C9.81171228 333.44480079 9.81171228 333.44480079 10 331 C9.01 331.33 8.02 331.66 7 332 C6.67 331.01 6.34 330.02 6 329 Z M143 329 C143.33 329.66 143.66 330.32 144 331 C144.66 330.67 145.32 330.34 146 330 C145.01 329.67 144.02 329.34 143 329 Z M146 332 C146.66 332.66 147.32 333.32 148 334 C148 333.34 148 332.68 148 332 C147.34 332 146.68 332 146 332 Z M15 336 C15 336.66 15 337.32 15 338 C15.66 337.67 16.32 337.34 17 337 C16.34 336.67 15.68 336.34 15 336 Z M139 340 C139.33 340.66 139.66 341.32 140 342 C140.66 341.67 141.32 341.34 142 341 C141.01 340.67 140.02 340.34 139 340 Z M84 345 C83.67 345.66 83.34 346.32 83 347 C83.99 346.67 84.98 346.34 86 346 C85.34 345.67 84.68 345.34 84 345 Z M34 348 C34.33 348.99 34.66 349.98 35 351 C36.65 351.33 38.3 351.66 40 352 C40 351.34 40 350.68 40 350 C38.02 349.34 36.04 348.68 34 348 Z M31 350 C32 352 32 352 32 352 Z M87 352 C86.01 352.66 85.02 353.32 84 354 C85.65 353.67 87.3 353.34 89 353 C88.34 352.67 87.68 352.34 87 352 Z M84 358 C83.01 359.485 83.01 359.485 82 361 C83.97536745 360.65213292 83.97536745 360.65213292 86 360 C86.33 359.34 86.66 358.68 87 358 C86.01 358 85.02 358 84 358 Z M30 361 C31 363 31 363 31 363 Z M51 362 C51 362.66 51 363.32 51 364 C51.66 364 52.32 364 53 364 C53 363.34 53 362.68 53 362 C52.34 362 51.68 362 51 362 Z M97 365 C97.33 366.32 97.66 367.64 98 369 C98.66 369 99.32 369 100 369 C99.67 367.68 99.34 366.36 99 365 C98.34 365 97.68 365 97 365 Z M38 368 C39 370 39 370 39 370 Z M98 370 C98.33 370.66 98.66 371.32 99 372 C99.66 372 100.32 372 101 372 C101 371.34 101 370.68 101 370 C100.01 370 99.02 370 98 370 Z M107 376 C107.99 376.99 108.98 377.98 110 379 C110 378.01 110 377.02 110 376 C109.01 376 108.02 376 107 376 Z M110 379 C111 381 111 381 111 381 Z M46 382 C47 384 47 384 47 384 Z M110 383 C110.66 384.32 111.32 385.64 112 387 C112.33 386.01 112.66 385.02 113 384 C112.01 383.67 111.02 383.34 110 383 Z M116 385 C116 385.66 116 386.32 116 387 C116.66 386.67 117.32 386.34 118 386 C117.34 385.67 116.68 385.34 116 385 Z M112 395 C113 397 113 397 113 397 Z M77 432 C78 434 78 434 78 434 Z " fill="#000000" transform="translate(242,22)"/>
<path d="M0 0 C0.66 0.33 1.32 0.66 2 1 C1.34 3.31 0.68 5.62 0 8 C-2.16874252 7.49396008 -3.99967627 7.00016187 -6 6 C-6 5.34 -6 4.68 -6 4 C-4.02 3.34 -2.04 2.68 0 2 C0 1.34 0 0.68 0 0 Z " fill="#000000" transform="translate(328,70)"/>
<path d="M0 0 C3.23655184 0 4.78752639 0.6550847 7.6875 2 C8.49574219 2.37125 9.30398438 2.7425 10.13671875 3.125 C11.05904297 3.558125 11.05904297 3.558125 12 4 C11.62109375 5.9296875 11.62109375 5.9296875 11 8 C9.0625 9.125 9.0625 9.125 7 10 C6.34 10.66 5.68 11.32 5 12 C2.875 12.625 2.875 12.625 1 13 C0.67 12.01 0.34 11.02 0 10 C-0.66 10 -1.32 10 -2 10 C-1.67 8.906875 -1.34 7.81375 -1 6.6875 C0.13086649 3.15421116 0.13086649 3.15421116 0 0 Z " fill="#000000" transform="translate(271,92)"/>
<path d="M0 0 C0.66 0.99 1.32 1.98 2 3 C1.67 3.66 1.34 4.32 1 5 C4.465 4.505 4.465 4.505 8 4 C8.57293869 13.73995772 8.57293869 13.73995772 5 18 C4.34 18 3.68 18 3 18 C2.67 16.68 2.34 15.36 2 14 C0.68 13.67 -0.64 13.34 -2 13 C-3.71050559 8.02398374 -2.00885647 4.57383705 0 0 Z " fill="#000000" transform="translate(365,131)"/>
<path d="M0 0 C0.33 1.65 0.66 3.3 1 5 C3.31 5.33 5.62 5.66 8 6 C9.00516936 8.55861291 9.16192618 9.62217225 8.0625 12.1875 C4.86040271 15.00146429 2.22829022 14.86576856 -2 15 C-2.66 14.34 -3.32 13.68 -4 13 C-4.99 13 -5.98 13 -7 13 C-7.99 13 -8.98 13 -10 13 C-12 11 -12 11 -12.1953125 8.8359375 C-12.17210937 8.02382813 -12.14890625 7.21171875 -12.125 6.375 C-12.10695313 5.55773437 -12.08890625 4.74046875 -12.0703125 3.8984375 C-12.04710937 3.27195312 -12.02390625 2.64546875 -12 2 C-10.37548581 1.66430703 -8.75037083 1.3315204 -7.125 1 C-6.22007812 0.814375 -5.31515625 0.62875 -4.3828125 0.4375 C-2 0 -2 0 0 0 Z " fill="#000000" transform="translate(354,302)"/>
<path d="M0 0 C1.36511719 0.43119141 1.36511719 0.43119141 2.7578125 0.87109375 C3.45648438 1.09925781 4.15515625 1.32742188 4.875 1.5625 C4.875 1.8925 4.875 2.2225 4.875 2.5625 C2.5489143 2.94313221 0.21444736 3.27519945 -2.125 3.5625 C-2.455 3.2325 -2.785 2.9025 -3.125 2.5625 C-5.45317964 2.19489269 -7.7868385 1.86008419 -10.125 1.5625 C-5.77354019 -1.33847321 -4.92208063 -1.57758995 0 0 Z " fill="#000000" transform="translate(368.125,318.4375)"/>
<path d="M0 0 C0.66 0.66 1.32 1.32 2 2 C2.99 2 3.98 2 5 2 C5.66 3.32 6.32 4.64 7 6 C5.68 6 4.36 6 3 6 C2.67 6.66 2.34 7.32 2 8 C1.566875 7.360625 1.13375 6.72125 0.6875 6.0625 C-0.91239177 3.73253997 -0.91239177 3.73253997 -4 3 C-4 2.34 -4 1.68 -4 1 C-2.125 0.375 -2.125 0.375 0 0 Z " fill="#000000" transform="translate(313,320)"/>
<path d="M0 0 C2.97 0.495 2.97 0.495 6 1 C6 1.99 6 2.98 6 4 C4.35 4 2.7 4 1 4 C0.67 2.68 0.34 1.36 0 0 Z " fill="#000000" transform="translate(307,325)"/>
<path d="M0 0 C4.95 0.99 4.95 0.99 10 2 C9.34 2.66 8.68 3.32 8 4 C6.0546875 3.7578125 6.0546875 3.7578125 3.875 3.125 C3.15054687 2.92132813 2.42609375 2.71765625 1.6796875 2.5078125 C1.12539063 2.34023438 0.57109375 2.17265625 0 2 C0 1.34 0 0.68 0 0 Z " fill="#000000" transform="translate(326,328)"/>
<path d="M0 0 C4.84659077 0.59104765 8.60748167 1.97944157 13 4 C12.01 4.99 11.02 5.98 10 7 C10.825 7.61875 11.65 8.2375 12.5 8.875 C13.325 9.57625 14.15 10.2775 15 11 C15 11.66 15 12.32 15 13 C4.68887763 10.03470991 4.68887763 10.03470991 1 6 C0.1875 2.75 0.1875 2.75 0 0 Z " fill="#000000" transform="translate(305,340)"/>
<path d="M0 0 C2.16874252 0.50603992 3.99967627 0.99983813 6 2 C6 2.66 6 3.32 6 4 C3.6875 5.125 3.6875 5.125 1 6 C0.01 5.34 -0.98 4.68 -2 4 C-1.34 2.68 -0.68 1.36 0 0 Z " fill="#000000" transform="translate(344,371)"/>
<path d="M0 0 C4.8 3.44615385 4.8 3.44615385 5.8125 6.25 C5.874375 6.8275 5.93625 7.405 6 8 C4.125 7.375 4.125 7.375 2 6 C0.75 2.875 0.75 2.875 0 0 Z " fill="#000000" transform="translate(304,381)"/>
</svg>
